<?xml version="1.0" encoding="UTF-8"?>
<svg id="Capa_1" xmlns="http://www.w3.org/2000/svg" version="1.1" viewBox="0 0 434.09 429.36">
  <!-- Generator: Adobe Illustrator 30.2.1, SVG Export Plug-In . SVG Version: 2.1.1 Build 1)  -->
  <defs>
    <style>
      .st0 {
        fill: #3c3c3b;
      }

      .st1 {
        fill: #00a099;
      }
    </style>
  </defs>
  <path class="st0" d="M91.75,102.09c-60.07,63.91-57.7,163.71,5.3,222.92,44.14,41.49,106.33,52.03,160.27,32.63,22.08-7.94,28.72-36.34,12.21-51.86h0c-8.13-7.64-20.05-10.08-30.88-6.02-33.35,12.51-72.11,6.21-99.51-19.54-38.61-36.29-40.07-97.47-3.25-136.64,36.82-39.17,97.97-41.51,136.58-5.22,27.4,25.76,36.09,64.05,25.66,98.11-3.38,11.06-.21,22.8,7.92,30.44h0c16.51,15.51,44.44,7.13,51-15.4,16.02-55.04,1.65-116.45-42.49-157.94-62.99-59.21-162.76-55.4-222.82,8.51Z"/>
  <ellipse class="st1" cx="327.56" cy="324.63" rx="34.24" ry="35.38" transform="translate(-133.32 340.98) rotate(-46.77)"/>
</svg>