<?xml version="1.0" encoding="UTF-8"?>
<svg id="Capa_1" xmlns="http://www.w3.org/2000/svg" version="1.1" viewBox="0 0 1920 410.84">
  <!-- Generator: Adobe Illustrator 30.2.1, SVG Export Plug-In . SVG Version: 2.1.1 Build 1)  -->
  <defs>
    <style>
      .st0 {
        fill: #3c3c3b;
      }

      .st1 {
        fill: #00a099;
      }
    </style>
  </defs>
  <path class="st0" d="M402.49,214.63v-107.41c0-8.58,6.96-15.54,15.54-15.54h21c8.58,0,15.54,6.96,15.54,15.54v107.41c0,34.07,22.17,70.6,65.77,70.6s65.78-36.8,65.78-70.6v-67.61c0-8.58,6.96-15.54,15.54-15.54h21c8.58,0,15.54,6.96,15.54,15.54v67.61c0,55.6-41.36,116.39-117.85,116.39s-117.84-60.79-117.84-116.39Z"/>
  <path class="st0" d="M757.49,94.55h26.89c5.41,0,10.27,3.32,12.22,8.37l80.51,207.39c3.34,8.59-3,17.86-12.22,17.86h-26.86c-5.44,0-10.32-3.36-12.26-8.45l-42.58-111.97c-4.29-11.27-20.23-11.27-24.51,0l-42.58,111.97c-1.93,5.09-6.81,8.45-12.26,8.45h-26.87c-9.22,0-15.56-9.26-12.22-17.86l80.51-207.39c1.96-5.04,6.81-8.37,12.22-8.37Z"/>
  <path class="st0" d="M934.43,94.55h25.51c4.94,0,9.62,2.21,12.76,6.02l92.33,112.16c9.85,11.97,29.28,5,29.28-10.5v-61.16c0-9.09,7.34-16.47,16.43-16.52l19.77-.11c9.16-.05,16.62,7.36,16.62,16.52v170.69c0,9.13-7.4,16.52-16.52,16.52h-27.51c-4.93,0-9.61-2.2-12.74-6.01l-90.84-110.09c-9.86-11.95-29.27-4.98-29.27,10.52v89.06c0,9.13-7.4,16.52-16.52,16.52h-19.28c-9.13,0-16.52-7.4-16.52-16.52V111.07c0-9.13,7.4-16.52,16.52-16.52Z"/>
  <path class="st0" d="M1239.93,140.62h-47.21c-7.88,0-14.27-6.39-14.27-14.27v-17.81c0-7.88,6.39-14.27,14.27-14.27h98.95c7.82,0,14.19,6.3,14.26,14.12l.33,32.22h0v173.55c0,7.88-6.39,14.27-14.27,14.27h-23.54c-7.88,0-14.27-6.39-14.27-14.27v-159.29c0-7.88-6.39-14.27-14.27-14.27Z"/>
  <path class="st0" d="M1347.64,214.63v-71.29c0-7.57,6.14-13.7,13.7-13.7h24.66c7.57,0,13.7,6.14,13.7,13.7v71.29c0,34.07,22.17,70.6,65.77,70.6s65.78-36.8,65.78-70.6v-109.24c0-7.57,6.14-13.7,13.7-13.7h24.66c7.57,0,13.7,6.14,13.7,13.7v109.24c0,55.6-41.36,116.39-117.85,116.39s-117.84-60.79-117.84-116.39Z"/>
  <path class="st0" d="M1636.67,94.55h31.3c3.85,0,7.46,1.91,9.62,5.1l49.96,73.68c4.61,6.8,14.63,6.8,19.24,0l49.95-73.68c2.16-3.19,5.77-5.1,9.62-5.1h31.54c6.42,0,11.62,5.2,11.62,11.62v210.37c0,6.42-5.2,11.62-11.62,11.62h-28.82c-6.42,0-11.62-5.2-11.62-11.62v-90.6c0-11.46-14.82-16-21.24-6.51l-14.42,21.3c-2.16,3.19-5.77,5.11-9.62,5.11h-30.01c-3.86,0-7.47-1.92-9.63-5.11l-14.16-20.96c-6.42-9.5-21.25-4.95-21.25,6.51v56.14c0,6.42-5.2,11.62-11.62,11.62h-28.83c-6.42,0-11.62-5.2-11.62-11.61V106.17c0-6.42,5.2-11.62,11.62-11.62Z"/>
  <path class="st0" d="M91.75,83.57c-60.07,63.91-57.7,163.71,5.3,222.92,44.14,41.49,106.33,52.03,160.27,32.63,22.08-7.94,28.72-36.34,12.21-51.86h0c-8.13-7.64-20.05-10.08-30.88-6.02-33.35,12.51-72.11,6.21-99.51-19.54-38.61-36.29-40.07-97.47-3.25-136.64,36.82-39.17,97.97-41.51,136.58-5.22,27.4,25.76,36.09,64.05,25.66,98.11-3.38,11.06-.21,22.8,7.92,30.44h0c16.51,15.51,44.44,7.13,51-15.4,16.02-55.04,1.65-116.45-42.49-157.94-62.99-59.21-162.76-55.4-222.82,8.51Z"/>
  <ellipse class="st1" cx="327.56" cy="306.11" rx="34.24" ry="35.38" transform="translate(-119.83 335.14) rotate(-46.77)"/>
  <ellipse class="st1" cx="770.58" cy="298.6" rx="29.01" ry="29.98" transform="translate(25.25 655.59) rotate(-46.77)"/>
</svg>